<?xml version="1.0" standalone="no"?>
<!DOCTYPE svg PUBLIC "-//W3C//DTD SVG 20010904//EN"
 "http://www.w3.org/TR/2001/REC-SVG-20010904/DTD/svg10.dtd">
<svg version="1.0" xmlns="http://www.w3.org/2000/svg"
 width="189.000000pt" height="51.000000pt" viewBox="0 0 189.000000 51.000000"
 preserveAspectRatio="xMidYMid meet">

<g transform="translate(0.000000,51.000000) scale(0.100000,-0.100000)" stroke="none">
<path d="M1160 445 c0 -19 -3 -35 -6 -35 -16 0 -44 23 -44 35 0 8 -4 15 -10
15 -17 0 -11 -29 10 -50 11 -11 27 -20 35 -20 8 0 15 -4 15 -10 0 -5 -10 -10
-22 -10 -13 0 -30 -5 -38 -10 -17 -11 -9 -13 33 -10 21 1 27 -3 27 -19 0 -19
-6 -21 -55 -21 -30 0 -55 -4 -55 -10 0 -5 14 -10 31 -10 l32 0 -7 -97 c-3 -54
-9 -113 -12 -132 -5 -23 -3 -32 4 -27 6 3 13 21 17 39 13 67 14 67 60 67 46 0
47 0 60 -67 4 -18 11 -36 17 -39 7 -5 9 3 4 22 -4 16 -10 75 -13 132 l-6 102
32 0 c17 0 31 5 31 10 0 6 -27 10 -60 10 -53 0 -60 2 -60 20 0 16 7 20 35 20
19 0 35 5 35 10 0 6 -16 10 -35 10 -43 0 -45 14 -5 29 17 5 30 17 30 25 0 8 3
21 6 30 3 9 2 16 -4 16 -5 0 -12 -9 -15 -19 -2 -10 -14 -24 -26 -30 -20 -11
-21 -9 -21 24 0 19 -4 35 -10 35 -5 0 -10 -16 -10 -35z m60 -170 c0 -11 -12
-15 -45 -15 -33 0 -45 4 -45 15 0 11 12 15 45 15 33 0 45 -4 45 -15z m0 -75
l0 -40 -45 0 -45 0 0 40 0 40 45 0 45 0 0 -40z"/>
<path d="M1140 200 c0 -5 13 -10 29 -10 17 0 33 5 36 10 4 6 -8 10 -29 10 -20
0 -36 -4 -36 -10z"/>
<path d="M680 406 c0 -57 -2 -66 -18 -66 -29 0 -42 21 -42 67 0 24 -4 43 -10
43 -5 0 -10 -20 -10 -45 0 -65 31 -95 97 -95 57 0 93 9 93 22 0 5 -19 6 -46 2
-44 -6 -46 -6 -42 17 2 14 11 25 23 27 11 2 26 11 33 20 14 19 16 62 2 62 -5
0 -10 -11 -10 -25 0 -14 -8 -29 -19 -35 -29 -15 -31 -13 -31 24 0 19 -4 38
-10 41 -6 4 -10 -18 -10 -59z"/>
<path d="M120 440 c0 -5 18 -10 40 -10 50 0 52 -15 4 -23 -57 -9 -64 -21 -63
-101 1 -62 2 -67 11 -40 8 23 19 34 47 42 l36 11 -37 -4 c-27 -3 -38 0 -38 10
0 7 17 18 38 24 l37 10 -37 -2 c-21 -2 -38 0 -38 3 0 15 26 30 52 30 27 0 28
-2 28 -51 0 -31 4 -48 10 -44 6 3 10 26 10 51 0 42 2 44 28 44 42 0 52 -17 52
-87 0 -40 4 -63 11 -63 8 0 10 23 7 71 -4 79 -19 99 -70 99 -15 0 -28 5 -28
10 0 6 20 10 45 10 25 0 45 5 45 10 0 6 -38 10 -95 10 -57 0 -95 -4 -95 -10z"/>
<path d="M1560 337 c0 -102 -5 -135 -36 -246 -14 -47 14 -12 31 40 l17 51 22
-53 c11 -29 27 -54 33 -57 7 -2 2 21 -14 55 -23 51 -27 74 -31 191 -2 72 -8
132 -13 132 -5 0 -9 -51 -9 -113z" style="fill: red;"/>
<path d="M1602 318 c2 -83 7 -121 17 -130 11 -11 12 -7 6 22 -4 19 -9 75 -10
123 -2 49 -6 92 -10 95 -4 4 -5 -46 -3 -110z"/>
<path d="M1654 416 c-17 -13 -19 -27 -19 -129 1 -143 13 -170 78 -165 39 3 43
6 55 43 16 47 10 229 -9 251 -15 18 -80 18 -105 0z m96 -25 c5 -11 10 -39 10
-63 l0 -43 -25 30 c-13 17 -24 43 -25 58 0 16 -4 26 -10 22 -5 -3 -10 -18 -10
-32 0 -13 -9 -36 -20 -50 l-20 -26 0 50 c0 27 5 54 12 61 20 20 76 15 88 -7z
m-56 -118 c-3 -21 -11 -51 -17 -67 -9 -26 -12 -27 -18 -10 -14 34 -9 63 13 89
12 14 23 25 24 25 2 0 0 -17 -2 -37z m66 -53 c0 -22 -4 -40 -8 -40 -13 0 -31
45 -38 93 l-6 42 26 -27 c19 -20 26 -38 26 -68z m-20 -75 c0 -9 -59 -5 -64 4
-4 5 2 23 11 39 l17 29 18 -33 c10 -19 18 -36 18 -39z"/>
<path d="M1525 343 c0 -43 -4 -98 -8 -123 -6 -34 -5 -42 3 -34 15 15 28 124
22 186 -7 74 -17 57 -17 -29z" style="fill: red;"/>
<path d="M230 361 c0 -9 52 -22 59 -15 6 6 -1 11 -31 18 -16 3 -28 2 -28 -3z"/>
<path d="M230 321 c0 -10 50 -25 58 -17 2 3 -7 10 -22 16 -33 12 -36 12 -36 1z"/>
<path d="M610 271 c0 -34 22 -61 51 -61 26 0 26 -46 1 -54 -33 -11 -63 -53
-69 -97 -4 -30 -3 -40 5 -35 7 4 12 18 12 31 0 34 43 79 90 95 23 8 48 23 56
34 16 23 20 121 4 111 -5 -3 -10 -24 -10 -46 0 -27 -7 -46 -22 -61 l-23 -23
-3 68 c-3 68 -22 96 -22 32 0 -19 -4 -35 -9 -35 -24 0 -41 14 -41 35 0 13 -4
27 -10 30 -6 4 -10 -6 -10 -24z"/>
<path d="M150 273 c0 -5 27 -8 59 -8 33 0 63 3 67 8 4 4 -23 7 -59 7 -37 0
-67 -3 -67 -7z"/>
<path d="M135 230 c-4 -6 8 -10 29 -10 42 0 43 -4 16 -45 -24 -36 -26 -88 -4
-109 18 -19 55 -21 72 -4 13 13 16 85 6 112 -10 25 -26 19 -18 -6 11 -34 6
-90 -8 -99 -6 -4 -20 -3 -30 2 -25 13 -23 61 5 109 19 35 26 40 60 40 23 0 36
4 32 10 -3 6 -39 10 -80 10 -41 0 -77 -4 -80 -10z"/>
</g>
</svg>
